; NON-PLATED HOLES START AT T1
; THROUGH (PLATED) HOLES START AT T100
M48
INCH
T100C0.040639
T101C0.031497
T102C0.035000
%
T100
X013673Y021521
X018673Y020522
X006673Y020522
X010673Y021521
X011673Y021521
X010673Y020522
X015673Y021521
X019673Y021521
X017673Y020522
X012673Y021521
X007673Y021521
X009673Y021521
X014673Y020522
X021673Y020522
X016673Y021521
X017673Y021521
X022673Y020522
X011673Y020522
X006673Y021521
X003673Y020522
X004673Y021521
X014673Y021521
X009673Y020522
X018673Y021521
X015673Y020522
X005673Y021521
X003673Y021521
X007673Y020522
X005673Y020522
X020673Y020522
X022673Y021521
X020673Y021521
X008673Y020522
X012673Y020522
X013673Y020522
X021673Y021521
X019673Y020522
X004673Y020522
X016673Y020522
X008673Y021521
T101
X008494Y013871
X009478Y013871
T102
X022478Y013871
X018478Y013871
T00
M30
